<svg width="16" height="16" viewBox="0 0 16 16" fill="none" xmlns="http://www.w3.org/2000/svg">
<path d="M7.6405 5.37512L2.328 10.9531C2.23433 11.0575 2.1875 11.1721 2.1875 11.2971C2.1875 11.4221 2.23433 11.5368 2.328 11.6411V11.6566C2.42167 11.7503 2.53367 11.7971 2.664 11.7971C2.79433 11.7971 2.90633 11.7503 3 11.6566L8 6.40662L13 11.6566C13.0937 11.7503 13.2057 11.7971 13.336 11.7971C13.4663 11.7971 13.5783 11.7503 13.672 11.6566V11.6411C13.7657 11.5368 13.8125 11.4221 13.8125 11.2971C13.8125 11.1721 13.7657 11.0575 13.672 10.9531L8.3595 5.37512C8.26583 5.28145 8.146 5.23462 8 5.23462C7.854 5.23462 7.73417 5.28145 7.6405 5.37512Z" fill="#303133"/>
</svg>
