<svg width="16" height="16" viewBox="0 0 16 16" fill="none" xmlns="http://www.w3.org/2000/svg">
<path d="M9.51538 2.32811L4.34338 7.65611C4.24971 7.74978 4.20288 7.86178 4.20288 7.99211C4.20288 8.12245 4.24971 8.23961 4.34338 8.34361L9.51538 13.6716C9.60905 13.7549 9.71838 13.7966 9.84338 13.7966C9.96838 13.7966 10.0777 13.7498 10.1714 13.6561C10.265 13.5624 10.3119 13.4531 10.3119 13.3281C10.3119 13.2031 10.265 13.0938 10.1714 13.0001L5.29638 8.00011L10.1714 3.00011C10.265 2.90645 10.3119 2.79711 10.3119 2.67211C10.3119 2.54711 10.265 2.43778 10.1714 2.34411C10.0777 2.25045 9.96838 2.20361 9.84338 2.20361C9.71838 2.20361 9.60905 2.24528 9.51538 2.32861V2.32811Z" fill="#303133"/>
</svg>
