<svg width="16" height="16" viewBox="0 0 16 16" fill="none" xmlns="http://www.w3.org/2000/svg">
<path d="M13.0001 5.32801L8.00011 10.203L3.00011 5.32801C2.90645 5.23435 2.79711 5.18751 2.67211 5.18751C2.54711 5.18751 2.43778 5.23435 2.34411 5.32801C2.25045 5.42168 2.20361 5.53101 2.20361 5.65601C2.20361 5.78101 2.24528 5.88518 2.32861 5.96851L7.65661 11.156C7.75028 11.2497 7.86495 11.2965 8.00061 11.2965C8.13628 11.2965 8.25095 11.2497 8.34461 11.156L13.6726 5.98401C13.7559 5.89035 13.7976 5.77835 13.7976 5.64801C13.7976 5.51768 13.7508 5.40835 13.6571 5.32001C13.5634 5.23168 13.4541 5.18735 13.3291 5.18701C13.2041 5.18668 13.0948 5.23351 13.0011 5.32751L13.0001 5.32801Z" fill="#303133"/>
</svg>
