<svg width="16" height="16" viewBox="0 0 16 16" fill="none" xmlns="http://www.w3.org/2000/svg">
<path d="M5.328 2.32789C5.23433 2.43223 5.1875 2.54689 5.1875 2.67189C5.1875 2.79689 5.23433 2.90623 5.328 2.99989L10.203 7.99989L5.328 12.9999C5.23433 13.0936 5.1875 13.2029 5.1875 13.3279C5.1875 13.4529 5.23433 13.5622 5.328 13.6559C5.42167 13.7496 5.531 13.7964 5.656 13.7964C5.781 13.7964 5.89033 13.7547 5.984 13.6714L11.156 8.34339C11.2497 8.24973 11.2965 8.13506 11.2965 7.99939C11.2965 7.86373 11.2497 7.74906 11.156 7.65539L5.984 2.32739C5.89033 2.24406 5.781 2.20239 5.656 2.20239C5.531 2.20239 5.42167 2.24406 5.328 2.32739V2.32789Z" fill="#303133"/>
</svg>
