<svg width="16" height="16" viewBox="0 0 16 16" fill="none" xmlns="http://www.w3.org/2000/svg">
<path d="M5.99985 8.17801V14.5C5.99985 14.5853 6.02166 14.6691 6.06319 14.7436C6.10473 14.818 6.16462 14.8806 6.23717 14.9254C6.30972 14.9702 6.39252 14.9957 6.47771 14.9995C6.56289 15.0033 6.64762 14.9852 6.72385 14.947L9.72385 13.447C9.80679 13.4054 9.87654 13.3416 9.92528 13.2627C9.97403 13.1837 9.99984 13.0928 9.99985 13V8.17801L14.3868 2.81701C14.4285 2.76619 14.4597 2.70767 14.4787 2.64479C14.4977 2.5819 14.5041 2.51589 14.4976 2.45052C14.4911 2.38514 14.4718 2.32169 14.4408 2.26378C14.4098 2.20587 14.3677 2.15464 14.3168 2.11301C14.266 2.07138 14.2075 2.04017 14.1446 2.02116C14.0817 2.00215 14.0157 1.99571 13.9503 2.00221C13.885 2.00871 13.8215 2.02802 13.7636 2.05905C13.7057 2.09007 13.6545 2.13219 13.6128 2.18301L9.11285 7.68301C9.03968 7.77245 8.99975 7.88446 8.99985 8.00001V12.691L6.99985 13.691V8.00001C6.99994 7.88446 6.96001 7.77245 6.88685 7.68301L3.05485 3.00001H10.9998C11.1325 3.00001 11.2596 2.94734 11.3534 2.85357C11.4472 2.7598 11.4998 2.63262 11.4998 2.50001C11.4998 2.36741 11.4472 2.24023 11.3534 2.14646C11.2596 2.05269 11.1325 2.00001 10.9998 2.00001H1.99985C1.90513 1.99995 1.81234 2.02679 1.73228 2.07742C1.65222 2.12804 1.58819 2.20037 1.54764 2.28597C1.50709 2.37157 1.4917 2.46693 1.50324 2.56095C1.51478 2.65496 1.55279 2.74376 1.61285 2.81701L5.99985 8.17801Z" fill="#303133"/>
</svg>
