<svg width="16" height="16" viewBox="0 0 16 16" fill="none" xmlns="http://www.w3.org/2000/svg">
<path d="M7.5 7.5V2C7.5 1.854 7.54683 1.73417 7.6405 1.6405C7.73417 1.54683 7.854 1.5 8 1.5C8.146 1.5 8.26583 1.54683 8.3595 1.6405C8.45317 1.73417 8.5 1.854 8.5 2V7.5H14C14.146 7.5 14.2658 7.54683 14.3595 7.6405C14.4532 7.73417 14.5 7.854 14.5 8C14.5 8.146 14.4532 8.26583 14.3595 8.3595C14.2658 8.45317 14.146 8.5 14 8.5H8.5V14C8.5 14.146 8.45317 14.2658 8.3595 14.3595C8.26583 14.4532 8.146 14.5 8 14.5C7.854 14.5 7.73417 14.4532 7.6405 14.3595C7.54683 14.2658 7.5 14.146 7.5 14V8.5H2C1.854 8.5 1.73417 8.45317 1.6405 8.3595C1.54683 8.26583 1.5 8.146 1.5 8C1.5 7.854 1.54683 7.73417 1.6405 7.6405C1.73417 7.54683 1.854 7.5 2 7.5H7.5Z" fill="#303133"/>
</svg>
