<svg width="16" height="16" viewBox="0 0 16 16" fill="none" xmlns="http://www.w3.org/2000/svg">
<path d="M2.90663 8.49988L3.56313 9.14038C3.68813 9.28638 3.72713 9.45038 3.68013 9.63238C3.63313 9.81438 3.51846 9.92905 3.33612 9.97638C3.15379 10.0237 2.99496 9.98471 2.85962 9.85938L1.35963 8.35938C1.25529 8.25505 1.20312 8.13521 1.20312 7.99988C1.20312 7.86455 1.25529 7.74471 1.35963 7.64038L2.85962 6.14038C2.99496 6.01538 3.15379 5.97638 3.33612 6.02338C3.51846 6.07038 3.63313 6.18505 3.68013 6.36738C3.72713 6.54971 3.68813 6.71371 3.56313 6.85938L2.90663 7.49988H7.45362V2.90588L6.81313 3.56238C6.67779 3.69771 6.51379 3.74205 6.32113 3.69538C6.12846 3.64871 6.00863 3.53155 5.96163 3.34388C5.91463 3.15621 5.96413 2.99471 6.11013 2.85938L7.61013 1.35938C7.70379 1.25505 7.81846 1.20288 7.95412 1.20288C8.08979 1.20288 8.20963 1.25505 8.31363 1.35938L9.81363 2.85938C9.90729 2.96371 9.95162 3.07838 9.94662 3.20338C9.94162 3.32838 9.88946 3.44038 9.79012 3.53938C9.69079 3.63838 9.57879 3.69055 9.45413 3.69588C9.32946 3.70121 9.21479 3.65688 9.11012 3.56288L8.45362 2.92238V7.50038H13.0006L12.3601 6.85988C12.2558 6.75555 12.2036 6.63571 12.2036 6.50038C12.2036 6.36505 12.2531 6.24788 12.3521 6.14888C12.4511 6.04988 12.5683 6.00038 12.7036 6.00038C12.839 6.00038 12.9588 6.04721 13.0631 6.14088L14.5631 7.64088C14.6568 7.74521 14.7036 7.86505 14.7036 8.00038C14.7036 8.13571 14.6568 8.25555 14.5631 8.35988L13.0631 9.85988C12.9588 9.95355 12.839 10.0004 12.7036 10.0004C12.5683 10.0004 12.4511 9.95088 12.3521 9.85188C12.2531 9.75288 12.2036 9.63571 12.2036 9.50038C12.2036 9.36505 12.2558 9.24521 12.3601 9.14088L13.0006 8.50038H8.45362V13.0784L9.11012 12.4379C9.24546 12.3025 9.40429 12.2609 9.58663 12.3129C9.76896 12.3649 9.88612 12.482 9.93812 12.6644C9.99012 12.8467 9.94846 13.0055 9.81312 13.1409L8.31312 14.6409C8.20879 14.7452 8.08896 14.7974 7.95362 14.7974C7.81829 14.7974 7.70362 14.7452 7.60962 14.6409L6.10962 13.1409C6.00529 13.0472 5.95312 12.9325 5.95312 12.7969C5.95312 12.6612 6.00262 12.544 6.10162 12.4454C6.20062 12.3467 6.31779 12.2972 6.45312 12.2969C6.58846 12.2965 6.70829 12.3434 6.81262 12.4374L7.45312 13.0939V8.49988H2.90612H2.90663Z" fill="#303133"/>
</svg>
