<svg width="16" height="16" viewBox="0 0 16 16" fill="none" xmlns="http://www.w3.org/2000/svg">
<path d="M9.76552 15L13.2345 13L12.5625 11.828C12.7919 11.557 13.0002 11.2602 13.1875 10.9375C13.3749 10.6148 13.5312 10.2815 13.6565 9.9375H15.0005L15.0005 5.9375H13.6565C13.4065 5.2395 13.0419 4.60933 12.5625 4.047L13.2345 2.875L9.76552 0.875L9.09352 2.047C8.36419 1.91167 7.63502 1.91167 6.90602 2.047L6.23402 0.875L2.76502 2.875L3.43702 4.047C3.19736 4.32833 2.98636 4.62783 2.80402 4.9455C2.62169 5.26317 2.46802 5.59383 2.34302 5.9375H0.999023L0.999023 9.9375H2.34302C2.59302 10.6355 2.95769 11.2657 3.43702 11.828L2.76502 13L6.23402 15L6.90602 13.828C7.63536 13.9633 8.36452 13.9633 9.09352 13.828L9.76552 15ZM10.1405 13.6405L9.95302 13.328L9.60902 12.7185L8.90602 12.8435C8.30169 12.9582 7.69752 12.9582 7.09352 12.8435L6.39052 12.7185L5.85902 13.6405L4.14002 12.6405L4.65552 11.7185L4.20252 11.187C3.80652 10.7183 3.50436 10.1923 3.29602 9.609L3.06152 8.937H1.99902V6.937H3.04602L3.29602 6.265C3.40036 5.963 3.52536 5.687 3.67102 5.437C3.81669 5.187 3.99386 4.937 4.20252 4.687L4.65552 4.1555L4.14002 3.2335L5.85902 2.2335L6.39052 3.1555L7.09352 3.0305C7.69786 2.91583 8.30202 2.91583 8.90602 3.0305L9.60902 3.1555L10.1405 2.2335L11.8595 3.2335L11.344 4.1555L11.797 4.687C12.193 5.16633 12.4952 5.69233 12.7035 6.265L12.938 6.937H14.0005L14.0005 8.937H12.9535L12.7035 9.609C12.6099 9.89033 12.4849 10.1638 12.3285 10.4295C12.1722 10.6952 11.995 10.9478 11.797 11.1875L11.344 11.719L11.8595 12.641L10.1405 13.6405ZM8.00002 11.4375C8.98969 11.4165 9.81519 11.0753 10.4765 10.414C11.1379 9.75267 11.479 8.92717 11.5 7.9375C11.479 6.94783 11.1379 6.12233 10.4765 5.461C9.81519 4.79967 8.98969 4.4585 8.00002 4.4375C7.01036 4.4585 6.18486 4.79967 5.52352 5.461C4.86219 6.12233 4.52102 6.94783 4.50002 7.9375C4.52102 8.92717 4.86219 9.75267 5.52352 10.414C6.18486 11.0753 7.01036 11.4165 8.00002 11.4375ZM8.00002 10.4375C7.29169 10.4165 6.70319 10.1717 6.23452 9.703C5.76586 9.23433 5.52102 8.64583 5.50002 7.9375C5.52102 7.22917 5.76586 6.64067 6.23452 6.172C6.70319 5.70333 7.29169 5.4585 8.00002 5.4375C8.70836 5.4585 9.29686 5.70333 9.76552 6.172C10.2342 6.64067 10.479 7.22917 10.5 7.9375C10.479 8.64583 10.2342 9.23433 9.76552 9.703C9.29686 10.1717 8.70836 10.4165 8.00002 10.4375Z" fill="#303133"/>
</svg>
